<?xml version="1.0" encoding="UTF-8" standalone="no"?>
<!DOCTYPE svg PUBLIC "-//W3C//DTD SVG 1.1//EN" "http://www.w3.org/Graphics/SVG/1.1/DTD/svg11.dtd">
<svg width="100%" height="100%" viewBox="0 0 15 12" version="1.1" xmlns="http://www.w3.org/2000/svg" xmlns:xlink="http://www.w3.org/1999/xlink" xml:space="preserve" xmlns:serif="http://www.serif.com/" style="fill-rule:evenodd;clip-rule:evenodd;stroke-linejoin:round;stroke-miterlimit:2;">
    <g transform="matrix(1,0,0,1,-1,-2)">
        <path d="M6,3.5C6,3.226 6.226,3 6.5,3L14.5,3C14.774,3 15,3.226 15,3.5L15,12.5C15,12.774 14.774,13 14.5,13L6.5,13C6.226,13 6,12.774 6,12.5L6,10.5C6,10.226 5.774,10 5.5,10C5.226,10 5,10.226 5,10.5L5,12.5C5,13.323 5.677,14 6.5,14L14.5,14C15.323,14 16,13.323 16,12.5L16,3.5C16,2.677 15.323,2 14.5,2L6.5,2C5.677,2 5,2.677 5,3.5L5,5.5C5,5.774 5.226,6 5.5,6C5.774,6 6,5.774 6,5.5L6,3.5Z" style="fill:rgb(212,2,29);"/>
        <path d="M11.854,8.354C11.948,8.26 12.001,8.133 12.001,8C12.001,7.867 11.948,7.74 11.854,7.646L8.854,4.646C8.76,4.552 8.633,4.499 8.5,4.499C8.225,4.499 7.999,4.725 7.999,5C7.999,5.133 8.052,5.26 8.146,5.354L10.293,7.5L1.5,7.5C1.226,7.5 1,7.726 1,8C1,8.274 1.226,8.5 1.5,8.5L10.293,8.5L8.146,10.646C8.052,10.74 7.999,10.867 7.999,11C7.999,11.275 8.225,11.501 8.5,11.501C8.633,11.501 8.76,11.448 8.854,11.354L11.854,8.354Z" style="fill:rgb(212,2,29);"/>
    </g>
</svg>
