<?xml version="1.0" encoding="UTF-8" standalone="no"?>
<!DOCTYPE svg PUBLIC "-//W3C//DTD SVG 1.1//EN" "http://www.w3.org/Graphics/SVG/1.1/DTD/svg11.dtd">
<svg width="100%" height="100%" viewBox="0 0 187 91" version="1.1" xmlns="http://www.w3.org/2000/svg" xmlns:xlink="http://www.w3.org/1999/xlink" xml:space="preserve" xmlns:serif="http://www.serif.com/" style="fill-rule:evenodd;clip-rule:evenodd;stroke-linecap:round;stroke-linejoin:round;stroke-miterlimit:1.5;">
    <g transform="matrix(0.32,0,0,0.32,-17.7036,-89.6507)">
        <g transform="matrix(1.0633,0,0,1.07651,-49.8821,-46.4516)">
            <circle cx="374.862" cy="415.43" r="103.198" style="fill:white;"/>
        </g>
        <g transform="matrix(2.20654,0,0,2.20654,-2033.08,-1579.74)">
            <path d="M1110.48,933.333C1102.91,940.128 1093.15,944.539 1082.39,945.366L1082.39,938.207C1082.39,936.186 1080.74,934.533 1078.72,934.533C1076.7,934.533 1075.05,936.186 1075.05,938.207L1075.05,945.366C1073.81,945.272 1072.58,945.118 1071.37,944.93C1050.98,941.759 1034.86,925.637 1031.69,905.248C1031.5,904.037 1031.35,902.814 1031.25,901.575L1038.41,901.575C1040.43,901.575 1042.09,899.92 1042.09,897.902C1042.09,895.881 1040.43,894.229 1038.41,894.229L1031.25,894.229C1032.08,883.47 1036.49,873.714 1043.29,866.14C1051.24,857.276 1062.46,851.399 1075.05,850.433L1075.05,857.593C1075.05,859.611 1076.7,861.266 1078.72,861.266C1080.74,861.266 1082.39,859.611 1082.39,857.593L1082.39,850.433C1105.74,852.227 1124.39,870.88 1126.19,894.229L1119.03,894.229C1117.01,894.229 1115.35,895.881 1115.35,897.902C1115.35,899.92 1117.01,901.575 1119.03,901.575L1126.19,901.575C1125.22,914.163 1119.34,925.381 1110.48,933.333ZM1078.72,842.9C1062.62,842.9 1048.12,849.851 1038.05,860.911C1029.15,870.686 1023.72,883.671 1023.72,897.902C1023.72,928.229 1048.39,952.9 1078.72,952.9C1092.95,952.9 1105.94,947.467 1115.72,938.563C1126.77,928.497 1133.72,913.997 1133.72,897.902C1133.72,867.573 1109.05,842.9 1078.72,842.9Z" style="fill:rgb(212,2,29);fill-rule:nonzero;"/>
        </g>
        <g transform="matrix(1,0,0,1,-0.039093,14.8319)">
            <path d="M481.278,409.212C487.948,410.565 493.421,412.53 499.543,415.237C499.543,415.237 575.184,463.353 632.707,464.848L632.707,541.254L61.613,541.254L61.613,464.848C108.941,463.489 195.777,415.237 195.777,415.237C201.898,412.53 207.372,410.565 214.041,409.212C218.021,472.562 282.819,522.878 347.16,522.878C378.559,522.878 415.467,510.604 437.047,490.957C459.657,470.361 479.242,441.637 481.278,409.212Z" style="fill:white;stroke:rgb(212,2,29);stroke-width:12.5px;"/>
        </g>
        <g transform="matrix(3.86315,0,0,3.72241,179.241,127.68)">
            <circle cx="43.457" cy="73.565" r="4.683" style="fill:rgb(212,2,29);"/>
        </g>
        <g transform="matrix(1.05347,3.03169,-2.53593,0.881199,432.551,241.675)">
            <path d="M40.269,30.961C40.269,29.782 39.469,28.825 38.483,28.825C37.497,28.825 36.697,29.782 36.697,30.961L36.697,47.398C36.697,48.577 37.497,49.534 38.483,49.534C39.469,49.534 40.269,48.577 40.269,47.398L40.269,30.961Z" style="fill:rgb(212,2,29);"/>
        </g>
        <g transform="matrix(2.96665,0,0,3.00325,232.955,319.275)">
            <path d="M40.269,30.59C40.269,29.616 39.469,28.825 38.483,28.825C37.497,28.825 36.697,29.616 36.697,30.59L36.697,47.769C36.697,48.743 37.497,49.534 38.483,49.534C39.469,49.534 40.269,48.743 40.269,47.769L40.269,30.59Z" style="fill:rgb(212,2,29);"/>
        </g>
    </g>
</svg>
