<?xml version="1.0" encoding="UTF-8" standalone="no"?>
<!DOCTYPE svg PUBLIC "-//W3C//DTD SVG 1.1//EN" "http://www.w3.org/Graphics/SVG/1.1/DTD/svg11.dtd">
<svg width="100%" height="100%" viewBox="0 0 20 18" version="1.1" xmlns="http://www.w3.org/2000/svg" xmlns:xlink="http://www.w3.org/1999/xlink" xml:space="preserve" xmlns:serif="http://www.serif.com/" style="fill-rule:evenodd;clip-rule:evenodd;stroke-linejoin:round;stroke-miterlimit:2;">
    <g transform="matrix(1,0,0,1,0,-8)">
        <path d="M17,24.5C17,25.323 16.323,26 15.5,26C14.677,26 14,25.323 14,24.5L14,23L17,23L17,24.5ZM8,24.5C7.979,25.315 7.315,25.979 6.5,26C5.685,25.979 5.021,25.315 5,24.5L5,23L8,23L8,24.5ZM18,11L4.1,11L3.9,10.9L3,10L3,9.5C2.979,8.685 2.315,8.021 1.5,8C0.677,8 -0,8.677 0,9.5C0,10.323 0.677,11 1.5,11L2,11L3.1,12L3.1,12.1L5,18.8C5.071,19.089 5.25,19.339 5.5,19.5L2,22L3,23L19.2,23L18.2,21L5.1,21L7.1,20L16.1,20C16.864,19.98 17.524,19.444 17.7,18.7L19.2,13C19.3,12.4 18.9,11 18,11ZM16,13L17,13L17,14L16,14L16,13ZM16,15L17,15L17,16L16,16L16,15ZM6,17L7,17L7,18L6,18L6,17ZM14,13L15,13L15,14L14,14L14,13ZM14,15L15,15L15,16L14,16L14,15ZM14,17L15,17L15,18L14,18L14,17ZM12,13L13,13L13,14L12,14L12,13ZM12,15L13,15L13,16L12,16L12,15ZM12,17L13,17L13,18L12,18L12,17ZM10,13L11,13L11,14L10,14L10,13ZM10,15L11,15L11,16L10,16L10,15ZM10,17L11,17L11,18L10,18L10,17ZM8,13L9,13L9,14L8,14L8,13ZM8,15L9,15L9,16L8,16L8,15ZM8,17L9,17L9,18L8,18L8,17ZM7,16L6,16L6,15L7,15L7,16ZM7,14L6,14L6,13L7,13L7,14Z" style="fill:rgb(94,94,94);fill-rule:nonzero;"/>
    </g>
</svg>
